<svg xmlns="http://www.w3.org/2000/svg" viewBox="0 0 500 500" width="500" height="500">
  <style>
    .st0 { fill: #f8f9fa; }
    .st1 { fill: #e9ecef; }
    .st2 { fill: #dee2e6; }
    .st3 { fill: #ffc107; }
    .st4 { fill: #6c757d; }
  </style>
  <circle class="st0" cx="250" cy="250" r="250"/>
  <path class="st1" d="M420.7,222.3c-6.9-25.3-35.7-53.2-64.8-63.1c-29.1-9.9-68-1.5-95.5,22.6c-27.5,24.1-43.5,63.9-78.1,69.2 c-34.5,5.3-87.6-23.9-115.8-61.4"/>
  <path class="st2" d="M325,195v-25c0-41.4-33.6-75-75-75s-75,33.6-75,75v25"/>
  <path class="st3" d="M325,205H175c-8.3,0-15-6.7-15-15v-10c0-8.3,6.7-15,15-15h150c8.3,0,15,6.7,15,15v10 C340,198.3,333.3,205,325,205z"/>
  <path class="st3" d="M292,310H208c-8.3,0-15-6.7-15-15V205h114v90C307,303.3,300.3,310,292,310z"/>
  <circle class="st1" cx="250" cy="260" r="18"/>
  <path class="st1" d="M250,270L250,270c-1.7,0-3,1.3-3,3v19c0,1.7,1.3,3,3,3h0c1.7,0,3-1.3,3-3v-19C253,271.3,251.7,270,250,270z"/>
</svg>
