<svg xmlns="http://www.w3.org/2000/svg" viewBox="0 0 500 500" width="500" height="500">
  <style>
    .st0 { fill: #f8f9fa; }
    .st1 { fill: #e9ecef; }
    .st2 { fill: #dee2e6; }
    .st3 { fill: #0d6efd; }
    .st4 { fill: #6c757d; }
  </style>
  <circle class="st0" cx="250" cy="250" r="250"/>
  <path class="st1" d="M420.7,222.3c-6.9-25.3-35.7-53.2-64.8-63.1c-29.1-9.9-68-1.5-95.5,22.6c-27.5,24.1-43.5,63.9-78.1,69.2 c-34.5,5.3-87.6-23.9-115.8-61.4"/>
  <path class="st2" d="M248.9,377.3h-60c-2.8,0-5-2.2-5-5v-27.3c0-2.8,2.2-5,5-5h60c2.8,0,5,2.2,5,5v27.3 C253.9,375,251.6,377.3,248.9,377.3z"/>
  <path class="st1" d="M311.1,377.3h-60c-2.8,0-5-2.2-5-5v-56.5c0-2.8,2.2-5,5-5h60c2.8,0,5,2.2,5,5v56.5 C316.1,375,313.8,377.3,311.1,377.3z"/>
  <path class="st2" d="M371.1,377.3h-60c-2.8,0-5-2.2-5-5V274c0-2.8,2.2-5,5-5h60c2.8,0,5,2.2,5,5v98.3 C376.1,375,373.8,377.3,371.1,377.3z"/>
  <path class="st3" d="M237.3,157.1c-0.1-0.1-0.1-0.3-0.2-0.4c-6-11.7-17.1-24.6-23.3-20.7c-5.2,3.3-0.9,17.1,1.2,27.8 c1.5,7.5,1.1,13,0.9,19.9c-0.1,2.9-0.2,6.2-0.2,10c0,0.6,0,1.1,0,1.7c-8.3,0.3-17.6,0.6-28.1,0.9c-3.8,0.1-6.8,3.2-6.7,7l0.8,28.1 c0.1,3.7,3.2,6.7,6.9,6.6l10.2-0.3c-4.2,27-13.7,64.2-32.6,68.8v-0.1c-12.1-0.4-23.8-4.5-32.9-11.7l-9.3,9.1 c13.9,11.6,31.1,17.9,49.2,17.9c0.5,0,1,0,1.5,0h0.7c22.4-0.6,34-32.9,39.8-52.7c8-27.4,10.6-52.8,12-65.9l4.3-0.1 c3.8-0.1,6.8-3.3,6.7-7.1l-0.8-28.1c-0.1-3.7-3.1-6.6-6.8-6.6l-2,0.1C228.2,160,232.6,158.4,237.3,157.1z"/>
  <rect x="319" y="157" class="st3" width="32" height="153" rx="6" ry="6"/>
  <rect x="319" y="157" transform="matrix(0 1 -1 0 544 -130)" class="st3" width="36" height="100" rx="6" ry="6"/>
  <circle class="st4" cx="163" cy="257" r="10" opacity="0.6"/>
</svg>
