<svg xmlns="http://www.w3.org/2000/svg" viewBox="0 0 500 500" width="500" height="500">
  <style>
    .st0 { fill: #f8f9fa; }
    .st1 { fill: #e9ecef; }
    .st2 { fill: #dee2e6; }
    .st3 { fill: #fd7e14; }
    .st4 { fill: #6c757d; }
  </style>
  <circle class="st0" cx="250" cy="250" r="250"/>
  <path class="st1" d="M420.7,222.3c-6.9-25.3-35.7-53.2-64.8-63.1c-29.1-9.9-68-1.5-95.5,22.6c-27.5,24.1-43.5,63.9-78.1,69.2 c-34.5,5.3-87.6-23.9-115.8-61.4"/>
  <path class="st3" d="M363,315h-75c-8.3,0-15-6.7-15-15V170c0-8.3,6.7-15,15-15h75c8.3,0,15,6.7,15,15v130 C378,308.3,371.3,315,363,315z"/>
  <path class="st0" d="M341,250c0,8.3-6.7,15-15,15s-15-6.7-15-15s6.7-15,15-15S341,241.7,341,250z"/>
  <path class="st2" d="M334.5,175h-60c-1.4,0-2.5-1.1-2.5-2.5l0,0c0-1.4,1.1-2.5,2.5-2.5h60c1.4,0,2.5,1.1,2.5,2.5l0,0 C337,173.9,335.9,175,334.5,175z"/>
  <path class="st2" d="M334.5,190h-60c-1.4,0-2.5-1.1-2.5-2.5l0,0c0-1.4,1.1-2.5,2.5-2.5h60c1.4,0,2.5,1.1,2.5,2.5l0,0 C337,188.9,335.9,190,334.5,190z"/>
  <path class="st2" d="M334.5,205h-60c-1.4,0-2.5-1.1-2.5-2.5l0,0c0-1.4,1.1-2.5,2.5-2.5h60c1.4,0,2.5,1.1,2.5,2.5l0,0 C337,203.9,335.9,205,334.5,205z"/>
  <circle class="st0" cx="304" cy="300" r="5"/>
  <path class="st3" d="M223,315h-75c-8.3,0-15-6.7-15-15V170c0-8.3,6.7-15,15-15h75c8.3,0,15,6.7,15,15v130 C238,308.3,231.3,315,223,315z"/>
  <path class="st0" d="M169,220c0,8.3,6.7,15,15,15s15-6.7,15-15s-6.7-15-15-15S169,211.7,169,220z"/>
  <path class="st0" d="M164,300h50v-40l-15-15l-20,20l-15-15V300z"/>
  <path class="st4" d="M250,377.3H125c-1.4,0-2.5-1.1-2.5-2.5l0,0c0-1.4,1.1-2.5,2.5-2.5h125c1.4,0,2.5,1.1,2.5,2.5l0,0 C252.5,376.1,251.4,377.3,250,377.3z"/>
  <path class="st4" d="M375,377.3H280c-1.4,0-2.5-1.1-2.5-2.5l0,0c0-1.4,1.1-2.5,2.5-2.5h95c1.4,0,2.5,1.1,2.5,2.5l0,0 C377.5,376.1,376.4,377.3,375,377.3z"/>
  <path class="st3" d="M272.5,377.3h-15c-1.4,0-2.5-1.1-2.5-2.5l0,0c0-1.4,1.1-2.5,2.5-2.5h15c1.4,0,2.5,1.1,2.5,2.5l0,0 C275,376.1,273.9,377.3,272.5,377.3z"/>
</svg>
