<svg xmlns="http://www.w3.org/2000/svg" viewBox="0 0 500 500" width="500" height="500">
  <style>
    .st0 { fill: #f8f9fa; }
    .st1 { fill: #e9ecef; }
    .st2 { fill: #dee2e6; }
    .st3 { fill: #dc3545; }
    .st4 { fill: #6c757d; }
  </style>
  <circle class="st0" cx="250" cy="250" r="250"/>
  <path class="st1" d="M420.7,222.3c-6.9-25.3-35.7-53.2-64.8-63.1c-29.1-9.9-68-1.5-95.5,22.6c-27.5,24.1-43.5,63.9-78.1,69.2 c-34.5,5.3-87.6-23.9-115.8-61.4"/>
  <path class="st2" d="M325,150H175c-8.3,0-15,6.7-15,15v170c0,8.3,6.7,15,15,15h150c8.3,0,15-6.7,15-15V165 C340,156.7,333.3,150,325,150z"/>
  <path class="st0" d="M310,180H190c-2.8,0-5,2.2-5,5v125c0,2.8,2.2,5,5,5h120c2.8,0,5-2.2,5-5V185C315,182.2,312.8,180,310,180z"/>
  <path class="st3" d="M265,235c0,5.5-4.5,10-10,10h-10c-5.5,0-10-4.5-10-10v-30c0-5.5,4.5-10,10-10h10c5.5,0,10,4.5,10,10V235z"/>
  <path class="st3" d="M265,300c0,5.5-4.5,10-10,10h-10c-5.5,0-10-4.5-10-10v-30c0-5.5,4.5-10,10-10h10c5.5,0,10,4.5,10,10V300z"/>
  <path class="st3" d="M298,264.5c0,5.5-4.5,10-10,10h-76c-5.5,0-10-4.5-10-10v-1c0-5.5,4.5-10,10-10h76c5.5,0,10,4.5,10,10V264.5z"/>
</svg>
